<svg width="462" height="86" viewBox="0 0 462 86" fill="none" xmlns="http://www.w3.org/2000/svg">
<path d="M147.781 50.8583H125.502V36.7148H117.23V84.3022H156.052V36.7148H147.781V50.8583ZM147.781 76.9326H125.502V58.1938H147.781V76.9326Z" fill="#00A887"/>
<path d="M178.961 36H170.689V85H178.961V36Z" fill="#00A887"/>
<path d="M249.661 36H241.458V85H249.661V36Z" fill="#00A887"/>
<path d="M227.671 50.3477H221.97L224.642 36.7148H188.015V44.4248H214.311L213.188 50.3477H187.947V57.8534H211.758L206.754 84.2852H215.451L220.523 57.8534H227.671V85H235.807V36H227.671V50.3477Z" fill="#00A887"/>
<path d="M320.361 36H312.09V85H320.361V36Z" fill="#00A887"/>
<path d="M277.948 36.2893C267.345 36.2893 258.648 42.9271 258.648 53.4623V67.5377C258.648 78.141 267.345 84.7107 277.948 84.7107C288.551 84.7107 297.248 78.141 297.248 67.5377V53.4623C297.248 42.9271 288.483 36.2893 277.948 36.2893ZM289.045 68.0313C289.045 73.9712 283.888 77.29 277.948 77.29C272.008 77.29 266.851 73.9712 266.851 68.0313V52.9007C266.851 47.0288 272.076 43.6419 277.948 43.6419C283.82 43.6419 289.045 47.0288 289.045 52.9007V68.0313Z" fill="#00A887"/>
<path d="M382.807 61.3084H328.922V68.8142H348.648V84.2852H356.92V68.8142H382.807V85H391.079V36H382.807V61.3084Z" fill="#00A887"/>
<path d="M339.951 57.496H365.396C371.114 57.496 375.795 52.9007 375.795 47.0969C375.795 41.2932 371.131 36.6978 365.396 36.6978H339.951C334.233 36.6978 329.552 41.2932 329.552 47.0969C329.552 52.9007 334.215 57.496 339.951 57.496ZM341.789 44.0674H363.558C365.328 44.0674 366.672 45.3439 366.672 47.1139C366.672 48.884 365.328 50.1605 363.558 50.1605H341.789C340.019 50.1605 338.675 48.884 338.675 47.1139C338.675 45.3439 340.019 44.0674 341.789 44.0674Z" fill="#00A887"/>
<path d="M453.507 36V50.7732H433.781V58.1257H453.507V85H461.779V36H453.507Z" fill="#00A887"/>
<path d="M408.337 36.7148H400.065V84.6426H440.998V77.29H408.337V36.7148Z" fill="#00A887"/>
<path d="M36.3604 40.4209C36.3601 47.9163 32.949 54.6248 27.6084 59.0879C35.8662 62.9755 41.5996 71.3845 41.5996 81.1006V85.0801H0V36.4404H36.3604V40.4209ZM54.3301 61.5889C65.2186 60.6843 73.8101 51.5389 73.8105 40.4209V36.4404H86.8301V44.4004H81.5049C80.6604 50.5966 77.8576 56.1683 73.7607 60.4961L83.5225 77.1104H89.0205V85.0703H78.9678L78.6777 84.5771L67.4766 65.5186C63.5855 67.838 59.1132 69.2827 54.3301 69.5674V85.04H46.3701V36.4404H54.3301V61.5889ZM88.0195 84.0703H88.0205V78.1104H88.0195V84.0703ZM7.95996 77.1201H33.1572C31.3812 70.015 24.9406 64.7402 17.29 64.7402H9.82031V56.7803H12.0498C19.6899 56.7803 26.1303 51.5063 27.915 44.4004H7.95996V77.1201ZM74.7256 42.3447C74.7486 42.0774 74.7688 41.809 74.7822 41.5391V41.5303C74.7687 41.8031 74.7489 42.0745 74.7256 42.3447ZM83.085 21.8027L72.7812 27.752L69.5703 22.1895L79.873 16.2402L83.085 21.8027ZM27.5146 22.1836L24.3037 27.7461L14 21.7979L17.2119 16.2354L27.5146 22.1836ZM38.2529 13.8018L32.6904 17.0127L26.7422 6.70898L32.3047 3.49805L38.2529 13.8018ZM70.3311 6.70605L64.3828 17.0098L58.8203 13.7979L64.7686 3.49512L70.3311 6.70605ZM51.75 11.8975H45.3271V0H51.75V11.8975Z" fill="url(#paint0_linear_1559_42)"/>
<defs>
<linearGradient id="paint0_linear_1559_42" x1="0.0205077" y1="42.54" x2="89" y2="42.54" gradientUnits="userSpaceOnUse">
<stop stop-color="#88E267"/>
<stop offset="1" stop-color="#00A887"/>
</linearGradient>
</defs>
</svg>
